<svg xmlns="http://www.w3.org/2000/svg" viewBox="0 0 820 360" role="img" aria-labelledby="title desc">
  <title id="title">KlusHulp Noord</title>
  <desc id="desc">KlusHulp Noord-logo met KHN-monogram, hamer, witte en gele merkletters en slogan.</desc>
  <rect width="820" height="360" rx="22" fill="#111111"/>
  <defs>
    <filter id="soft" x="-20%" y="-20%" width="140%" height="140%">
      <feGaussianBlur stdDeviation="10" result="b"/>
      <feMerge><feMergeNode in="b"/><feMergeNode in="SourceGraphic"/></feMerge>
    </filter>
  </defs>
  <g filter="url(#soft)">
    <text x="80" y="205" font-family="Arial Black, Arial, sans-serif" font-size="175" font-weight="900" fill="#ffffff">K</text>
    <text x="285" y="205" font-family="Arial Black, Arial, sans-serif" font-size="175" font-weight="900" fill="#ffffff">H</text>
    <text x="500" y="205" font-family="Arial Black, Arial, sans-serif" font-size="175" font-weight="900" fill="#f5b800">N</text>
    <g transform="translate(255 56)" fill="#ffffff">
      <path d="M12 50h92v22H69v128H45V72H12z"/>
      <path d="M16 46c16-29 48-43 84-34l12 18c-27-5-51 4-66 25z"/>
    </g>
    <rect x="449" y="168" width="42" height="16" rx="5" fill="#f5b800"/>
    <path d="M463 185 445 286q-2 12 10 15l17 4q12 3 15-9l10-111z" fill="#f5b800"/>
  </g>
  <text x="52" y="275" font-family="Arial Black, Arial, sans-serif" font-size="62" font-weight="900" fill="#ffffff">KLUSHULP</text>
  <text x="463" y="275" font-family="Arial Black, Arial, sans-serif" font-size="62" font-weight="900" fill="#f5b800">NOORD</text>
  <path d="M54 320h70M696 320h70" stroke="#f5b800" stroke-width="6"/>
  <text x="143" y="329" font-family="Arial, sans-serif" font-size="27" font-weight="700" letter-spacing="1" fill="#ffffff">Betaalbaar • Betrouwbaar • Voor Iedereen</text>
</svg>