<svg xmlns="http://www.w3.org/2000/svg" width="1246" height="565" viewBox="0 0 1246 565">
<g>
<path d="M 0.00 0.00 L 1246.00 0.00 L 1246.00 565.00 L 0.00 565.00 ZM 721.00 196.00 L 721.00 370.00 L 758.00 370.00 L 758.00 334.82 C758.00,300.92 757.92,299.47 755.86,295.22 C754.38,292.16 752.14,289.78 748.61,287.50 C738.32,280.87 735.00,275.20 735.00,264.28 C735.00,258.88 735.58,256.28 737.87,251.50 C740.72,245.54 745.41,240.08 746.63,241.29 C746.98,241.64 747.96,246.90 748.80,252.98 L 750.34 264.02 L 755.66 266.62 C762.11,269.78 764.23,269.39 769.35,264.15 L 773.19 260.22 L 771.45 249.59 C770.49,243.75 769.98,238.69 770.32,238.35 C771.53,237.14 777.04,240.30 780.60,244.24 C787.30,251.66 790.34,262.34 788.10,270.62 C787.49,272.89 785.20,277.39 783.00,280.62 C781.09,283.43 779.62,285.29 779.13,287.39 C777.90,292.69 783.02,299.47 803.54,326.65 C804.84,328.37 806.20,330.17 807.62,332.06 L 836.24 370.00 L 872.00 370.00 L 872.00 236.72 L 865.85 237.36 C862.47,237.71 853.70,238.00 846.35,238.00 L 833.00 238.00 L 833.00 296.36 L 828.20 289.43 C820.59,278.44 792.38,238.10 770.73,207.25 L 762.83 196.00 ZM 560.00 219.07 L 560.00 370.00 L 600.00 370.00 L 600.00 305.00 L 650.97 305.00 L 651.50 369.50 L 671.25 369.77 L 691.00 370.04 L 691.00 196.00 L 651.00 196.00 L 651.00 265.00 L 600.00 265.00 L 600.00 194.00 L 581.06 194.00 L 580.78 206.25 L 580.50 218.50 L 570.25 218.78 ZM 364.00 224.61 C364.00,224.83 372.35,225.00 382.55,225.00 L 401.11 225.00 L 407.30 220.82 C413.16,216.86 432.35,203.45 465.00,180.50 C491.39,161.94 552.14,119.60 575.50,103.48 C603.56,84.11 615.18,76.01 620.74,71.91 C623.07,70.19 625.61,69.02 626.39,69.32 C628.27,70.04 740.43,153.55 772.00,177.74 C775.58,180.48 791.24,192.23 806.82,203.86 L 835.13 225.00 L 853.28 225.00 C868.69,225.00 871.21,224.79 869.96,223.63 C869.16,222.88 858.49,214.77 846.25,205.61 L 824.00 188.97 L 824.00 132.00 L 786.00 132.00 L 786.00 145.50 C786.00,152.93 785.63,159.00 785.17,159.00 C784.72,159.00 765.61,144.94 742.71,127.75 C719.81,110.56 693.29,90.75 683.79,83.73 C674.28,76.70 657.32,64.17 646.11,55.88 L 625.71 40.82 L 615.11 48.11 C603.57,56.05 531.40,106.53 494.50,132.48 C481.85,141.38 455.30,160.05 435.50,173.97 C415.70,187.90 396.80,201.17 393.50,203.46 C377.92,214.28 364.00,224.26 364.00,224.61 ZM 377.00 237.00 L 377.00 370.00 L 417.00 370.00 L 417.00 340.55 L 423.22 334.28 C426.64,330.82 429.77,328.00 430.17,328.00 C430.58,328.00 432.35,330.14 434.12,332.75 C435.89,335.36 442.51,344.81 448.84,353.75 L 460.34 370.00 L 509.24 370.00 L 506.77 366.75 C505.42,364.96 496.45,352.48 486.84,339.00 C477.23,325.52 466.98,311.25 464.08,307.27 L 458.79 300.05 L 486.29 271.77 C501.42,256.22 514.99,242.07 516.44,240.31 L 519.07 237.13 L 494.29 237.00 L 469.50 236.87 L 443.20 263.69 L 416.90 290.50 L 417.57 263.75 L 418.25 237.00 ZM 1022.75 473.43 C1023.16,473.86 1030.93,474.03 1040.00,473.81 C1055.26,473.45 1056.93,473.23 1062.18,470.80 C1068.64,467.81 1073.00,462.66 1074.95,455.69 C1075.77,452.76 1076.07,445.93 1075.84,435.31 C1075.50,419.54 1075.46,419.27 1072.47,414.44 C1070.60,411.42 1067.58,408.40 1064.56,406.53 L 1059.66 403.50 L 1040.83 403.17 L 1022.00 402.84 L 1022.00 437.76 C1022.00,456.96 1022.34,473.01 1022.75,473.43 ZM 841.50 473.67 C847.12,475.54 858.49,474.71 864.87,471.96 C876.43,466.99 879.38,459.43 878.85,436.14 C878.51,421.10 878.38,420.27 875.50,414.50 C873.15,409.80 871.44,407.85 867.58,405.50 C862.86,402.62 862.18,402.50 851.08,402.50 C838.51,402.50 836.03,403.25 830.63,408.64 C824.50,414.77 823.61,418.01 823.19,435.65 C822.56,461.69 825.82,468.45 841.50,473.67 ZM 907.24 473.35 C914.84,475.67 925.12,475.01 932.29,471.73 C943.15,466.75 946.54,457.50 945.73,435.07 C945.12,418.24 944.11,414.77 938.14,408.98 C932.52,403.53 927.93,401.99 917.38,402.03 C903.43,402.09 894.02,408.07 891.05,418.78 C889.33,424.95 889.72,453.82 891.59,459.32 C893.64,465.34 900.16,471.18 907.24,473.35 ZM 519.46 368.75 C519.81,369.66 523.36,370.00 532.45,370.00 C544.60,370.00 544.98,369.93 545.51,367.75 C545.81,366.51 545.93,346.38 545.78,323.00 C545.50,280.73 545.49,280.50 543.41,280.20 C541.40,279.91 541.28,279.17 540.68,262.35 C540.33,252.70 540.32,241.47 540.67,237.40 L 541.29 230.00 L 525.00 230.00 L 525.00 240.75 C524.99,246.66 524.70,257.89 524.34,265.70 C523.73,279.11 523.58,279.92 521.60,280.20 C519.51,280.50 519.50,280.69 519.24,324.00 C519.10,347.92 519.19,368.06 519.46,368.75 ZM 958.67 473.33 C959.03,473.70 962.41,474.00 966.17,474.00 L 973.00 474.00 L 973.00 448.89 L 977.61 449.20 L 982.22 449.50 L 988.70 461.75 L 995.18 474.00 L 1002.92 474.00 C1007.18,474.00 1010.93,473.73 1011.26,473.41 C1011.59,473.08 1009.82,469.37 1007.32,465.16 C1002.18,456.47 998.00,448.44 998.01,447.28 C998.01,446.85 999.65,445.38 1001.66,444.02 C1006.78,440.53 1008.95,435.18 1008.98,425.96 C1009.01,416.53 1006.45,410.88 1000.17,406.51 L 995.83 403.50 L 958.00 402.84 L 958.00 437.76 C958.00,456.96 958.30,472.97 958.67,473.33 ZM 453.67 473.33 C454.03,473.70 457.86,474.00 462.17,474.00 L 470.00 474.00 L 470.00 446.00 L 494.94 446.00 L 495.22 459.75 L 495.50 473.50 L 512.50 473.50 L 512.50 403.50 L 495.00 402.92 L 495.00 429.74 L 485.19 430.44 C479.79,430.82 474.17,430.83 472.69,430.46 L 470.00 429.78 L 470.00 403.00 L 453.00 403.00 L 453.00 437.83 C453.00,456.99 453.30,472.97 453.67,473.33 ZM 755.71 473.37 C756.10,473.76 759.36,473.95 762.96,473.79 L 769.50 473.50 L 769.77 453.25 C769.92,442.11 770.37,433.01 770.77,433.02 C771.17,433.04 776.67,441.64 783.00,452.15 C789.33,462.65 795.09,471.87 795.82,472.62 C796.67,473.51 799.42,474.00 803.57,474.00 L 810.00 474.00 L 810.00 403.00 L 795.04 403.00 L 794.77 423.75 L 794.50 444.50 L 769.50 403.08 L 755.00 403.00 L 755.00 437.83 C755.00,456.99 755.32,472.99 755.71,473.37 ZM 659.71 473.37 C660.09,473.76 663.81,473.95 667.96,473.79 L 675.50 473.50 L 675.78 462.38 L 676.06 451.25 L 686.78 450.80 C698.96,450.28 703.54,448.56 708.80,442.57 C712.82,437.99 714.34,432.18 713.74,423.66 C713.11,414.79 709.76,409.65 702.06,405.75 C696.72,403.04 696.37,403.00 677.82,403.00 L 659.00 403.00 L 659.00 437.83 C659.00,456.99 659.32,472.98 659.71,473.37 ZM 184.67 473.33 C185.03,473.70 188.86,474.00 193.17,474.00 L 201.00 474.00 L 201.00 464.03 C201.00,454.29 201.07,453.99 204.14,450.50 C205.86,448.53 207.71,447.07 208.24,447.25 C208.77,447.42 212.94,453.40 217.50,460.53 L 225.79 473.50 L 234.57 473.79 C244.46,474.12 246.67,473.69 245.02,471.76 C244.42,471.07 238.60,462.40 232.08,452.50 L 220.23 434.50 L 222.82 431.00 C224.24,429.08 229.80,421.99 235.16,415.25 L 244.92 403.00 L 224.50 403.02 L 201.50 433.02 L 200.95 403.00 L 184.00 403.00 L 184.00 437.83 C184.00,456.99 184.30,472.97 184.67,473.33 ZM 329.58 473.04 C333.51,474.63 336.30,474.96 343.50,474.69 C354.64,474.28 361.60,471.56 366.13,465.84 C371.41,459.17 372.00,455.33 372.00,427.84 L 372.00 403.00 L 355.00 403.00 L 355.00 426.53 C355.00,451.79 354.46,455.16 349.88,458.37 C346.81,460.53 339.15,460.48 335.97,458.30 C331.06,454.91 331.07,454.93 331.03,428.25 L 331.00 403.00 L 312.83 403.00 L 313.17 429.25 C313.49,453.48 313.68,455.85 315.63,460.00 C318.38,465.84 323.44,470.57 329.58,473.04 ZM 544.17 473.09 C550.81,475.39 561.83,475.54 568.91,473.43 C572.55,472.35 575.53,470.52 578.53,467.53 C585.33,460.72 586.00,457.17 586.00,427.82 L 586.00 403.00 L 569.00 403.00 L 569.00 426.53 C569.00,451.79 568.46,455.16 563.88,458.37 C562.52,459.32 559.58,460.00 556.79,460.00 C552.95,460.00 551.40,459.44 548.77,457.08 L 545.50 454.17 L 544.90 403.00 L 528.00 403.00 L 528.00 428.82 C528.00,458.21 528.54,461.19 534.96,467.46 C537.20,469.65 541.11,472.04 544.17,473.09 ZM 401.50 474.06 C406.11,475.19 417.34,475.12 422.90,473.93 C429.25,472.57 435.37,468.15 437.97,463.05 C440.70,457.71 440.72,448.33 438.02,443.04 C434.92,436.96 431.44,435.01 415.51,430.45 C405.37,427.54 403.00,425.92 403.00,421.90 C403.00,417.82 406.25,416.00 413.47,416.02 C420.18,416.03 421.64,416.64 423.37,420.11 C424.40,422.19 425.36,422.54 430.78,422.80 L 437.00 423.10 L 437.00 416.12 C437.00,409.47 436.86,409.03 433.93,406.95 C426.18,401.43 407.61,400.08 398.50,404.38 C390.43,408.18 385.99,414.70 386.01,422.72 C386.02,435.52 391.48,440.12 414.19,446.44 C420.86,448.29 423.00,450.11 423.00,453.92 C423.00,457.94 419.85,460.27 413.70,460.77 C407.24,461.31 401.48,459.14 399.84,455.55 C398.76,453.17 398.21,453.00 391.70,453.00 L 384.72 453.00 L 385.36 459.15 C385.71,462.53 386.53,465.94 387.19,466.73 C388.70,468.55 397.58,473.10 401.50,474.06 ZM 481.49 225.46 L 480.83 229.41 L 488.22 222.39 C497.01,214.04 504.45,210.00 511.01,210.00 C517.81,210.00 519.40,211.62 520.00,219.17 L 520.50 225.50 L 544.50 225.50 L 544.81 219.52 C545.22,211.52 546.68,210.00 554.00,210.00 C558.46,210.00 560.09,210.44 561.54,212.04 C563.08,213.75 564.39,214.04 569.44,213.79 L 575.50 213.50 L 575.78 202.75 L 576.07 192.00 L 569.26 192.00 C563.68,192.00 562.13,192.36 560.73,194.00 C557.44,197.84 547.30,196.15 545.13,191.39 C544.09,189.09 543.64,189.00 533.77,189.02 C515.50,189.05 505.06,192.52 494.65,202.04 C488.60,207.56 482.72,218.03 481.49,225.46 ZM 256.68 473.35 C257.06,473.73 267.75,473.92 280.43,473.77 L 303.50 473.50 L 303.79 466.25 L 304.09 459.00 L 274.19 459.00 L 273.52 448.75 C273.15,443.11 273.00,430.51 273.18,420.75 L 273.50 403.00 L 264.75 403.00 L 256.00 403.00 L 256.00 437.83 C256.00,456.99 256.31,472.97 256.68,473.35 ZM 601.67 473.33 C602.03,473.70 612.61,474.00 625.17,474.00 L 648.00 474.00 L 648.00 459.05 L 618.50 458.50 L 617.97 403.00 L 601.00 403.00 L 601.00 437.83 C601.00,456.99 601.30,472.97 601.67,473.33 ZM 858.93 459.12 C855.37,461.65 851.03,462.13 846.50,460.48 C844.30,459.68 842.40,459.02 842.28,459.02 C842.15,459.01 841.39,457.71 840.57,456.14 C839.49,454.04 839.04,449.21 838.89,438.09 C838.70,424.27 838.86,422.66 840.69,420.20 C843.66,416.20 846.85,414.86 852.34,415.32 C861.61,416.09 863.90,421.10 863.86,440.50 C863.85,451.63 862.54,456.55 858.93,459.12 ZM 924.40 459.86 C923.03,460.49 919.74,461.00 917.09,461.00 C911.14,461.00 907.49,458.42 906.04,453.20 C904.69,448.33 904.71,426.91 906.07,423.32 C908.71,416.34 916.09,413.34 923.26,416.33 C929.07,418.76 930.00,421.75 930.00,438.05 C930.00,453.62 928.93,457.80 924.40,459.86 ZM 1055.13 458.40 C1052.11,459.91 1045.00,460.80 1040.25,460.25 L 1037.00 459.87 L 1037.00 415.75 L 1045.47 416.19 C1058.68,416.89 1061.00,420.13 1061.00,437.95 C1061.00,450.57 1059.36,456.27 1055.13,458.40 ZM 906.54 358.37 L 907.22 362.00 L 917.36 361.98 C922.94,361.97 940.10,361.54 955.50,361.03 C970.90,360.53 993.62,359.78 1006.00,359.37 C1029.05,358.62 1032.59,357.28 1012.00,357.10 C1005.67,357.04 992.40,356.57 982.50,356.05 C936.54,353.62 907.86,352.74 906.88,353.72 C906.29,354.31 906.15,356.28 906.54,358.37 ZM 322.00 361.41 C323.38,361.57 329.79,361.77 336.25,361.85 L 348.00 362.00 L 348.00 353.00 L 343.75 353.00 C341.41,353.01 325.77,353.70 309.00,354.54 C292.23,355.39 268.94,356.43 257.26,356.86 C245.58,357.30 235.79,357.88 235.50,358.16 C235.22,358.45 254.00,359.23 277.24,359.90 C300.49,360.58 320.62,361.26 322.00,361.41 ZM 907.59 338.25 C907.91,338.57 910.50,338.65 913.34,338.41 C918.68,337.97 954.69,336.46 986.37,335.34 C1006.89,334.62 1014.22,333.17 998.00,333.04 C992.22,332.99 974.22,332.30 958.00,331.50 C941.78,330.70 923.66,330.03 917.75,330.02 L 907.00 330.00 L 907.00 333.83 C907.00,335.94 907.26,337.93 907.59,338.25 ZM 332.50 337.95 C339.65,338.35 345.95,338.60 346.50,338.51 C347.05,338.42 347.64,336.27 347.80,333.73 L 348.11 329.11 L 341.30 329.57 C337.56,329.82 324.15,330.47 311.50,331.00 C267.69,332.87 260.00,333.31 260.00,333.96 C260.00,334.33 273.39,335.21 289.75,335.93 C306.11,336.65 325.35,337.56 332.50,337.95 ZM 629.67 163.33 C630.03,163.70 634.53,164.00 639.67,164.00 L 649.00 164.00 L 649.00 142.71 L 642.25 143.35 C638.54,143.70 634.04,143.99 632.25,143.99 L 629.00 144.00 L 629.00 153.33 C629.00,158.47 629.30,162.97 629.67,163.33 ZM 602.67 163.33 C603.03,163.70 607.53,164.00 612.67,164.00 L 622.00 164.00 L 622.00 144.00 L 602.00 144.00 L 602.00 153.33 C602.00,158.47 602.30,162.97 602.67,163.33 ZM 602.67 137.33 C603.50,138.16 606.59,138.17 615.25,137.35 L 622.00 136.71 L 622.00 118.00 L 602.00 118.00 L 602.00 127.33 C602.00,132.47 602.30,136.97 602.67,137.33 ZM 632.25 137.30 C634.04,137.53 638.42,137.67 642.00,137.61 L 648.50 137.50 L 648.79 127.75 L 649.07 118.00 L 629.00 118.00 L 629.00 136.87 ZM 694.24 434.20 C692.40,436.04 690.63,436.53 684.74,436.82 C680.76,437.02 677.16,436.84 676.75,436.43 C676.34,436.01 676.00,431.47 676.00,426.33 L 676.00 417.00 L 683.89 417.00 C694.45,417.00 696.50,418.53 696.50,426.38 C696.50,430.82 696.04,432.40 694.24,434.20 ZM 990.48 433.75 C988.34,435.61 986.71,436.00 981.11,436.00 C977.38,436.00 974.03,435.70 973.67,435.33 C973.30,434.97 973.00,430.47 973.00,425.33 L 973.00 416.00 L 979.35 416.00 C987.74,416.00 991.51,417.40 993.03,421.08 C994.76,425.26 993.60,431.04 990.48,433.75 ZM 996.51 511.63 C998.43,513.04 1018.24,512.83 1052.27,511.06 C1065.93,510.35 1069.15,509.82 1067.82,508.49 C1067.54,508.21 1051.28,507.69 1031.69,507.33 C997.92,506.71 996.02,506.77 995.37,508.48 C994.91,509.67 995.30,510.75 996.51,511.63 ZM 221.50 511.91 C256.10,513.00 259.03,512.92 260.37,510.78 C262.61,507.22 260.10,506.77 238.84,506.95 C216.20,507.14 190.30,508.36 189.39,509.28 C188.20,510.47 196.01,511.11 221.50,511.91 ZM 907.00 309.71 L 907.00 317.23 L 914.25 316.64 C918.24,316.32 935.32,315.51 952.21,314.86 C969.10,314.21 982.73,313.37 982.50,313.00 C982.27,312.63 968.45,312.02 951.79,311.65 C935.13,311.28 918.24,310.69 914.25,310.34 ZM 338.00 316.41 C339.38,316.57 342.19,316.77 344.25,316.85 C347.92,317.00 348.00,316.92 348.00,313.37 L 348.00 309.74 L 343.75 310.34 C341.41,310.68 325.89,311.26 309.25,311.64 C292.61,312.01 279.00,312.63 279.00,313.01 C279.00,313.39 291.71,314.25 307.25,314.91 C322.79,315.57 336.62,316.25 338.00,316.41 ZM 581.79 518.45 C587.08,521.32 591.33,519.84 593.63,514.33 C595.36,510.20 594.06,504.64 590.99,502.99 C588.61,501.72 583.40,501.72 581.04,502.98 C576.24,505.55 576.73,515.70 581.79,518.45 ZM 800.92 517.08 C802.61,518.76 804.91,520.00 806.37,520.00 C813.08,520.00 817.35,510.23 813.02,504.75 C810.20,501.16 803.83,500.87 800.31,504.17 C796.85,507.43 797.12,513.28 800.92,517.08 ZM 781.50 518.89 C783.69,520.13 788.56,519.61 790.60,517.91 C791.32,517.32 792.41,515.30 793.03,513.41 C793.97,510.56 793.85,509.37 792.33,506.24 C790.65,502.80 790.12,502.48 785.80,502.20 C779.60,501.80 777.00,504.19 777.00,510.31 C777.00,514.81 778.14,516.98 781.50,518.89 ZM 872.62 518.20 C872.89,518.64 875.34,519.00 878.06,519.00 C884.59,519.00 887.00,516.71 887.00,510.50 C887.00,504.32 884.58,502.00 878.14,502.00 L 873.29 502.00 L 872.71 509.70 C872.39,513.93 872.35,517.75 872.62,518.20 ZM 390.75 519.18 C394.54,519.62 399.25,518.95 400.75,517.75 C402.21,516.59 402.42,512.38 401.07,511.54 C400.55,511.22 400.39,509.35 400.71,507.38 C401.44,502.91 400.23,502.04 393.25,502.02 L 388.00 502.00 L 388.00 518.87 ZM 281.00 502.00 L 281.00 519.00 L 287.02 519.00 C292.52,519.00 293.14,518.78 294.22,516.43 C295.05,514.59 295.08,513.36 294.33,512.16 C293.75,511.23 293.50,508.97 293.77,507.12 C294.39,502.92 293.09,502.04 286.25,502.02 ZM 645.00 502.00 L 645.00 519.00 L 650.38 519.00 C656.24,519.00 658.16,517.70 658.04,513.83 C658.01,512.55 657.99,509.98 658.00,508.11 C658.03,503.18 656.56,502.00 650.38,502.00 ZM 508.70 519.36 C509.61,520.28 518.14,519.03 519.75,517.75 C521.23,516.57 521.42,511.38 520.02,510.51 C519.40,510.13 519.49,509.18 520.26,507.95 C522.40,504.53 520.12,502.54 513.65,502.20 L 508.00 501.90 L 508.00 510.28 C508.00,514.89 508.31,518.98 508.70,519.36 ZM 620.55 513.53 C622.75,521.09 625.22,521.07 626.91,513.50 C627.59,510.48 628.49,508.00 628.91,508.00 C629.33,508.00 630.27,510.48 631.00,513.50 C633.32,523.19 636.67,519.91 639.64,505.03 C640.11,502.70 639.89,502.00 638.70,502.00 C637.62,502.00 636.79,503.68 636.00,507.50 C635.37,510.52 634.51,513.00 634.09,513.00 C633.66,513.00 632.76,510.52 632.09,507.50 C631.14,503.25 630.43,502.00 629.00,502.00 C627.57,502.00 626.86,503.25 625.91,507.50 C625.24,510.52 624.37,513.00 624.00,513.00 C623.63,513.00 622.76,510.52 622.09,507.50 C621.24,503.72 620.37,502.00 619.30,502.00 C617.57,502.00 617.78,504.01 620.55,513.53 ZM 909.52 518.02 C910.86,520.20 913.00,518.95 913.00,516.00 C913.00,514.06 913.51,513.00 914.43,513.00 C915.22,513.00 916.83,514.35 918.00,516.00 C919.17,517.65 920.78,519.00 921.57,519.00 C923.39,519.00 923.37,518.49 921.41,515.51 C919.96,513.30 919.96,512.89 921.41,510.82 C924.98,505.73 922.29,502.00 915.07,502.00 L 910.28 502.00 L 909.59 509.52 C909.22,513.66 909.18,517.49 909.52,518.02 ZM 702.64 514.40 C703.37,519.69 706.00,520.95 706.00,516.00 C706.00,511.98 708.92,511.99 711.20,516.01 C712.14,517.65 713.61,519.00 714.48,519.00 C715.90,519.00 715.90,518.71 714.53,516.07 C713.16,513.41 713.18,512.85 714.72,510.17 C716.12,507.73 716.21,506.75 715.23,504.60 C714.16,502.27 713.49,502.00 708.65,502.00 L 703.26 502.00 L 702.63 505.90 C702.29,508.04 702.29,511.86 702.64,514.40 ZM 560.00 510.50 C560.00,517.39 560.28,519.00 561.50,519.00 C563.00,513.68 563.45,513.00 564.97,513.00 C566.16,513.00 567.57,514.20 568.50,516.00 C569.35,517.65 570.71,519.00 571.53,519.00 C573.42,519.00 573.39,518.00 571.40,515.16 C569.93,513.07 569.93,512.73 571.40,511.11 C573.29,509.02 573.50,504.90 571.80,503.20 C571.14,502.54 568.22,502.00 565.30,502.00 L 560.00 502.00 ZM 447.00 510.50 C447.00,517.39 447.28,519.00 448.50,519.00 C450.00,511.98 452.92,511.99 455.20,516.01 C456.14,517.65 457.60,519.00 458.45,519.00 C460.38,519.00 460.39,518.52 458.47,515.60 C457.09,513.48 457.11,512.98 458.68,510.24 C460.11,507.74 460.21,506.76 459.23,504.60 C458.16,502.26 457.50,502.00 452.52,502.00 L 447.00 502.00 ZM 829.13 517.44 C831.90,520.97 833.93,519.35 831.46,515.58 C829.86,513.14 829.86,512.81 831.37,511.15 C835.48,506.60 832.24,502.00 824.93,502.00 L 820.00 502.00 L 820.00 510.50 C820.00,517.39 820.28,519.00 821.50,519.00 C823.00,513.67 823.44,513.00 825.00,513.00 C826.10,513.00 827.00,513.39 827.00,513.87 C827.00,514.34 827.96,515.95 829.13,517.44 ZM 962.68 519.35 C964.01,520.67 964.89,518.44 965.19,513.00 L 965.50 507.50 L 969.79 513.75 C972.15,517.19 974.46,520.00 974.93,520.00 C976.42,520.00 977.00,517.05 977.00,509.42 C977.00,503.59 976.69,502.00 975.55,502.00 C974.23,502.00 973.77,503.42 972.64,511.00 C972.52,511.83 970.88,510.18 968.96,507.27 C967.00,504.30 964.74,502.03 963.75,502.02 C962.22,502.00 962.00,503.06 962.00,510.33 C962.00,514.92 962.31,518.97 962.68,519.35 ZM 682.05 517.75 C681.97,519.77 684.83,519.18 686.03,516.94 C686.94,515.25 687.72,515.00 690.32,515.56 C692.07,515.93 693.86,516.86 694.30,517.62 C695.06,518.93 698.00,519.60 698.00,518.47 C698.00,518.17 696.61,514.32 694.91,509.91 C690.88,499.47 689.02,499.39 684.93,509.50 C683.38,513.35 682.08,517.06 682.05,517.75 ZM 351.17 518.22 C350.58,519.58 353.87,519.06 354.70,517.65 C355.14,516.91 356.97,516.02 358.76,515.68 C361.34,515.18 362.27,515.45 363.25,517.02 C364.44,518.94 367.01,519.78 366.99,518.25 C366.99,517.84 365.73,514.12 364.21,510.00 C362.11,504.31 360.94,502.43 359.37,502.20 C357.63,501.95 356.85,503.12 354.40,509.67 C352.81,513.94 351.35,517.79 351.17,518.22 ZM 331.54 517.25 C330.97,518.58 331.26,519.00 332.78,519.00 C333.93,519.00 334.99,518.15 335.29,517.00 C335.69,515.46 336.65,515.00 339.50,515.00 C342.35,515.00 343.31,515.46 343.71,517.00 C344.20,518.86 347.00,519.92 347.00,518.25 C347.00,517.30 342.31,504.30 341.49,502.98 C341.15,502.44 340.07,502.00 339.07,502.00 C337.75,502.00 336.59,503.82 334.78,508.75 C333.41,512.46 331.95,516.29 331.54,517.25 ZM 662.00 518.59 C662.00,519.91 665.10,518.68 666.00,517.00 C666.75,515.60 668.09,515.00 670.47,515.00 C672.99,515.00 674.03,515.52 674.50,517.00 C675.09,518.85 678.08,519.94 677.94,518.25 C677.90,517.84 676.67,514.12 675.19,510.00 C673.09,504.15 672.03,502.43 670.36,502.19 C668.52,501.93 667.78,503.04 665.11,510.03 C663.40,514.51 662.00,518.36 662.00,518.59 ZM 426.00 518.34 C426.00,519.54 428.26,519.03 429.39,517.56 C430.00,516.77 432.12,515.83 434.11,515.48 C437.22,514.92 437.80,515.12 438.27,516.91 C438.57,518.06 439.58,519.00 440.51,519.00 C441.71,519.00 442.02,518.48 441.57,517.25 C434.78,498.79 433.77,498.20 429.13,509.84 C427.41,514.14 426.00,517.97 426.00,518.34 ZM 406.64 519.22 C407.03,519.86 407.93,519.42 408.92,518.11 C409.82,516.91 412.15,515.69 414.13,515.37 C417.19,514.87 417.79,515.09 418.26,516.89 C418.56,518.05 419.58,519.00 420.51,519.00 C421.71,519.00 422.02,518.48 421.57,517.25 C416.75,504.15 415.58,501.92 413.70,502.20 C412.26,502.42 410.98,504.58 408.87,510.34 C407.28,514.65 406.28,518.65 406.64,519.22 ZM 945.67 519.33 C947.04,520.71 957.00,519.48 957.00,517.93 C957.00,517.48 955.09,516.98 952.75,516.81 C949.26,516.55 948.44,516.11 948.19,514.31 C947.92,512.44 948.42,512.08 951.61,511.81 C956.69,511.39 957.21,509.22 952.32,508.81 C949.70,508.60 948.42,507.97 948.20,506.81 C947.94,505.48 948.77,505.06 952.11,504.81 C959.08,504.30 958.23,502.00 951.08,502.00 L 945.00 502.00 L 945.00 510.33 C945.00,514.92 945.30,518.97 945.67,519.33 ZM 300.67 519.33 C302.04,520.71 312.00,519.48 312.00,517.93 C312.00,517.48 310.09,516.98 307.75,516.81 C304.26,516.55 303.44,516.11 303.19,514.31 C302.92,512.44 303.42,512.08 306.61,511.81 C311.69,511.39 312.21,509.22 307.32,508.81 C304.70,508.60 303.42,507.97 303.20,506.81 C302.94,505.48 303.77,505.06 307.11,504.81 C314.08,504.30 313.23,502.00 306.08,502.00 L 300.00 502.00 L 300.00 510.33 C300.00,514.92 300.30,518.97 300.67,519.33 ZM 928.00 502.00 L 928.00 519.00 L 934.00 519.00 C940.83,519.00 942.20,517.27 935.75,516.81 C932.26,516.55 931.44,516.11 931.19,514.31 C930.92,512.44 931.42,512.08 934.61,511.81 C939.69,511.39 940.21,509.22 935.32,508.81 C932.70,508.60 931.42,507.97 931.20,506.81 C930.94,505.48 931.77,505.06 935.11,504.81 C942.08,504.30 941.23,502.00 934.08,502.00 ZM 856.00 502.00 L 856.00 519.00 L 861.44 519.00 C867.97,519.00 869.84,517.25 863.77,516.81 C860.26,516.55 859.44,516.11 859.19,514.31 C858.92,512.44 859.42,512.08 862.61,511.81 C867.93,511.37 868.33,509.00 863.08,509.00 C859.67,509.00 859.00,508.67 859.00,507.00 C859.00,505.33 859.67,505.00 863.00,505.00 C865.89,505.00 867.00,504.58 867.00,503.50 C867.00,502.35 865.72,502.00 861.50,502.00 ZM 601.45 517.55 C604.43,520.52 608.30,520.70 611.00,518.00 C612.62,516.38 613.00,514.67 613.00,509.00 C613.00,503.44 612.69,502.00 611.50,502.00 C610.32,502.00 610.00,503.38 610.00,508.38 C610.00,516.01 608.46,518.12 604.47,515.98 C602.24,514.79 602.00,514.04 602.00,508.33 C602.00,503.37 601.68,502.00 600.50,502.00 C599.32,502.00 599.00,503.39 599.00,508.55 C599.00,514.16 599.35,515.44 601.45,517.55 ZM 893.00 502.00 L 893.00 519.00 L 898.44 519.00 C904.97,519.00 906.84,517.25 900.77,516.81 C897.26,516.55 896.44,516.11 896.19,514.31 C895.92,512.44 896.42,512.08 899.69,511.81 C904.59,511.41 904.63,509.59 899.75,509.19 C896.81,508.95 896.00,508.46 896.00,506.94 C896.00,505.34 896.71,505.00 900.00,505.00 C902.89,505.00 904.00,504.58 904.00,503.50 C904.00,502.35 902.72,502.00 898.50,502.00 ZM 527.00 502.00 L 527.00 519.00 L 532.50 519.00 C538.68,519.00 540.05,517.29 534.25,516.81 C531.27,516.56 530.44,516.05 530.19,514.31 C529.92,512.44 530.42,512.08 533.69,511.81 C538.59,511.41 538.63,509.59 533.75,509.19 C530.81,508.95 530.00,508.46 530.00,506.94 C530.00,505.34 530.71,505.00 534.00,505.00 C536.89,505.00 538.00,504.58 538.00,503.50 C538.00,502.35 536.72,502.00 532.50,502.00 ZM 808.60 516.23 C805.18,518.52 801.00,515.19 801.00,510.19 C801.00,503.86 810.03,502.30 811.56,508.37 C812.17,510.82 810.65,514.86 808.60,516.23 ZM 589.17 515.35 C586.79,517.50 584.71,517.44 582.65,515.17 C580.73,513.04 580.47,507.93 582.20,506.20 C583.98,504.42 589.67,504.69 590.39,506.58 C591.56,509.61 590.99,513.70 589.17,515.35 ZM 788.17 515.35 C785.79,517.50 783.71,517.44 781.65,515.17 C779.73,513.04 779.47,507.93 781.20,506.20 C782.98,504.42 788.67,504.69 789.39,506.58 C790.56,509.61 789.99,513.70 788.17,515.35 ZM 764.41 519.19 C766.17,520.39 767.81,518.08 770.09,511.17 C771.30,507.50 772.50,503.94 772.75,503.25 C773.01,502.56 772.53,502.00 771.69,502.00 C770.70,502.00 769.40,504.29 768.00,508.50 C766.81,512.08 765.69,515.00 765.50,515.00 C765.31,515.00 764.19,512.08 763.00,508.50 C761.69,504.57 760.28,502.00 759.42,502.00 C758.64,502.00 758.00,502.34 758.00,502.75 C757.98,504.49 763.47,518.56 764.41,519.19 ZM 321.67 519.33 C323.42,521.09 324.00,519.40 324.00,512.57 C324.00,505.25 324.04,505.13 326.67,504.82 C328.14,504.64 329.53,503.94 329.76,503.25 C330.06,502.33 328.29,502.00 323.00,502.00 C317.71,502.00 315.94,502.33 316.24,503.25 C316.47,503.94 317.63,504.64 318.83,504.82 C320.81,505.11 321.00,505.73 321.00,511.90 C321.00,515.62 321.30,518.97 321.67,519.33 ZM 548.41 518.85 C549.96,521.36 551.00,518.60 551.00,512.01 C551.00,505.72 551.18,505.11 553.17,504.82 C554.37,504.64 555.53,503.94 555.76,503.25 C556.06,502.33 554.29,502.00 549.00,502.00 C543.71,502.00 541.94,502.33 542.24,503.25 C542.47,503.94 543.89,504.65 545.39,504.82 C548.08,505.14 548.13,505.26 547.91,511.41 C547.78,514.85 548.01,518.20 548.41,518.85 ZM 882.94 514.57 C882.29,515.36 880.46,516.00 878.88,516.00 C876.05,516.00 876.00,515.90 876.00,510.44 L 876.00 504.88 L 879.75 505.19 C883.31,505.48 883.52,505.69 883.81,509.32 C883.99,511.42 883.59,513.78 882.94,514.57 ZM 372.41 519.08 C373.19,519.86 384.00,518.82 384.00,517.96 C384.00,517.50 382.09,516.98 379.75,516.81 L 375.50 516.50 L 375.21 509.25 C374.98,503.70 374.57,502.00 373.46,502.00 C372.30,502.00 372.00,503.70 372.00,510.33 C372.00,514.92 372.19,518.85 372.41,519.08 ZM 847.00 510.50 C847.00,517.39 847.28,519.00 848.50,519.00 C849.72,519.00 850.00,517.39 850.00,510.50 C850.00,503.61 849.72,502.00 848.50,502.00 C847.28,502.00 847.00,503.61 847.00,510.50 ZM 481.62 512.48 C483.57,514.43 485.89,514.14 487.39,511.75 C488.67,509.71 487.24,506.69 484.76,506.20 C483.21,505.89 480.00,508.45 480.00,510.00 C480.00,510.47 480.73,511.59 481.62,512.48 ZM 734.20 512.80 C734.86,513.46 735.90,514.00 736.50,514.00 C739.73,514.00 741.37,507.74 738.43,506.61 C734.62,505.15 731.35,509.95 734.20,512.80 ZM 517.82 514.25 C517.60,515.81 516.72,516.59 514.96,516.80 C512.01,517.14 511.00,516.38 511.00,513.83 C511.00,512.40 511.77,512.00 514.57,512.00 C517.70,512.00 518.10,512.28 517.82,514.25 ZM 654.82 514.25 C654.60,515.81 653.72,516.59 651.96,516.80 C649.01,517.14 648.00,516.38 648.00,513.83 C648.00,512.40 648.77,512.00 651.57,512.00 C654.70,512.00 655.10,512.28 654.82,514.25 ZM 569.82 507.25 C569.60,508.81 568.72,509.59 566.96,509.80 C564.01,510.14 563.00,509.38 563.00,506.83 C563.00,505.40 563.77,505.00 566.57,505.00 C569.70,505.00 570.10,505.28 569.82,507.25 ZM 397.96 515.54 C395.94,517.98 392.30,517.36 391.76,514.50 C391.32,512.24 391.60,512.00 394.58,512.00 C398.36,512.00 399.72,513.43 397.96,515.54 ZM 712.40 508.41 C712.03,509.36 710.62,510.00 708.89,510.00 C706.47,510.00 706.00,509.59 706.00,507.50 C706.00,505.40 706.47,505.00 708.94,505.00 C712.24,505.00 713.30,506.05 712.40,508.41 ZM 829.40 508.41 C829.03,509.36 827.62,510.00 825.89,510.00 C823.47,510.00 823.00,509.59 823.00,507.50 C823.00,505.40 823.47,505.00 825.94,505.00 C829.24,505.00 830.30,506.05 829.40,508.41 ZM 290.96 515.54 C289.71,517.06 286.82,517.49 285.67,516.33 C285.30,515.97 285.00,514.84 285.00,513.83 C285.00,512.47 285.76,512.00 287.94,512.00 C291.39,512.00 292.67,513.49 290.96,515.54 ZM 456.50 507.50 C456.50,509.03 455.73,509.57 453.25,509.81 C450.33,510.10 450.00,509.86 450.00,507.50 C450.00,505.14 450.33,504.90 453.25,505.19 C455.73,505.43 456.50,505.97 456.50,507.50 ZM 918.72 508.88 C918.10,509.50 916.57,510.00 915.30,510.00 C913.51,510.00 913.00,509.44 913.00,507.50 C913.00,505.41 913.47,505.00 915.89,505.00 C919.02,505.00 920.53,507.07 918.72,508.88 ZM 517.81 506.75 C517.48,508.53 513.05,509.71 511.71,508.38 C509.87,506.54 511.18,505.00 514.57,505.00 C517.44,505.00 518.08,505.35 517.81,506.75 ZM 654.32 507.60 C653.77,509.03 649.87,509.54 648.67,508.33 C647.05,506.72 648.17,505.00 650.83,505.00 C654.16,505.00 655.06,505.67 654.32,507.60 ZM 435.99 511.75 C436.00,512.99 432.84,513.51 431.78,512.44 C431.09,511.76 433.17,506.00 434.10,506.00 C434.79,506.00 435.96,509.57 435.99,511.75 ZM 361.22 512.44 C360.16,513.51 357.00,512.99 357.01,511.75 C357.04,509.57 358.21,506.00 358.90,506.00 C359.83,506.00 361.91,511.76 361.22,512.44 ZM 691.63 510.75 C692.10,512.52 691.82,513.00 690.28,513.00 C687.45,513.00 687.08,512.24 688.33,508.94 C689.46,505.95 690.99,504.98 691.01,507.25 C691.02,507.94 691.30,509.51 691.63,510.75 ZM 290.81 506.75 C290.31,509.41 285.40,509.65 284.72,507.05 C284.26,505.27 284.65,505.00 287.67,505.00 C290.44,505.00 291.08,505.36 290.81,506.75 ZM 416.00 511.43 C416.00,513.01 412.49,513.67 411.70,512.25 C411.47,511.84 411.83,510.18 412.51,508.58 C413.71,505.73 413.77,505.71 414.87,507.76 C415.49,508.92 416.00,510.57 416.00,511.43 ZM 671.61 509.82 C672.18,512.64 671.99,513.00 670.00,513.00 C668.01,513.00 667.82,512.64 668.39,509.82 C668.73,508.08 669.24,506.43 669.51,506.16 C670.31,505.36 670.94,506.45 671.61,509.82 ZM 397.81 506.75 C397.61,507.81 396.39,508.63 394.74,508.82 C392.54,509.07 392.00,508.73 392.00,507.07 C392.00,505.43 392.63,505.00 395.07,505.00 C397.46,505.00 398.07,505.39 397.81,506.75 ZM 341.17 510.50 C341.41,511.97 340.87,512.59 339.12,512.84 C336.96,513.14 336.81,512.91 337.45,510.34 C337.84,508.78 338.36,507.31 338.60,507.07 C339.31,506.35 340.81,508.35 341.17,510.50 Z" fill="rgb(1,1,1)"/>
<path d="M 925.45 310.89 C932.67,311.16 942.27,311.44 951.79,311.65 C968.45,312.02 982.27,312.63 982.50,313.00 C982.69,313.31 973.19,313.94 960.19,314.53 C961.25,314.45 962.05,314.37 962.50,314.30 C966.12,313.75 966.26,313.63 963.98,312.99 C962.59,312.61 953.14,311.99 942.98,311.63 C937.23,311.42 930.81,311.15 925.45,310.89 ZM 967.32 336.04 C975.24,335.62 980.90,335.20 982.00,334.92 C983.92,334.42 988.20,333.94 991.50,333.86 C994.80,333.77 996.38,333.55 995.00,333.37 C993.78,333.20 988.51,332.89 981.21,332.53 C988.78,332.82 995.02,333.02 998.00,333.04 C1014.22,333.17 1006.89,334.62 986.37,335.34 C980.10,335.56 973.66,335.80 967.32,336.04 ZM 993.63 356.56 C1000.80,356.85 1007.88,357.06 1012.00,357.10 C1032.59,357.28 1029.05,358.62 1006.00,359.37 C1000.26,359.56 992.28,359.82 983.84,360.10 C999.53,359.50 1009.38,358.95 1009.75,358.58 C1010.07,358.26 1010.15,357.84 1009.92,357.64 C1009.72,357.47 1004.39,357.11 993.63,356.56 ZM 265.36 359.54 C247.93,358.97 235.27,358.40 235.50,358.16 C235.79,357.88 245.58,357.30 257.26,356.86 C264.50,356.60 276.21,356.09 288.06,355.55 C278.58,356.02 270.15,356.43 265.75,356.64 C258.19,357.01 252.00,357.64 252.00,358.06 C252.00,358.55 256.26,359.03 265.36,359.54 ZM 294.66 314.30 C285.40,313.79 279.00,313.28 279.00,313.01 C279.00,312.63 292.61,312.01 309.25,311.64 C318.07,311.44 326.58,311.18 332.97,310.93 C326.79,311.27 318.22,311.70 310.02,312.07 C297.11,312.65 286.39,313.27 286.21,313.46 C286.04,313.63 289.02,313.92 294.66,314.30 ZM 1065.09 510.10 C1068.89,508.65 1057.83,507.80 1028.78,507.28 C1029.72,507.29 1030.69,507.31 1031.69,507.33 C1051.28,507.69 1067.54,508.21 1067.82,508.49 C1068.54,509.21 1067.93,509.69 1065.09,510.10 ZM 1013.20 512.53 C1020.90,512.22 1034.35,511.75 1044.00,511.45 C1044.58,511.43 1045.16,511.41 1045.73,511.39 C1032.25,512.05 1021.32,512.43 1013.20,512.53 ZM 932.27 353.75 C943.38,354.13 957.82,354.78 974.98,355.66 C964.16,355.15 950.76,354.55 934.71,353.85 C933.88,353.82 933.06,353.78 932.27,353.75 ZM 935.89 361.56 C942.71,361.39 949.27,361.21 955.48,361.03 C941.93,361.48 927.03,361.86 919.85,361.96 ZM 948.78 331.07 C936.99,330.58 925.99,330.18 920.05,330.05 C925.95,330.15 937.18,330.55 948.78,331.07 ZM 348.00 309.74 L 348.00 309.92 L 345.34 310.12 ZM 911.59 338.52 C912.96,338.36 918.72,338.05 926.65,337.71 C919.85,338.02 915.04,338.27 913.34,338.41 C912.74,338.46 912.15,338.50 911.59,338.52 ZM 907.59 338.25 C907.26,337.93 907.00,335.94 907.00,333.83 C907.00,335.85 907.28,337.79 907.63,338.29 C907.61,338.28 907.60,338.26 907.59,338.25 ZM 336.25 361.85 C333.41,361.81 330.59,361.76 328.19,361.69 C331.54,361.77 334.34,361.82 336.25,361.85 L 348.00 362.00 ZM 343.75 353.00 L 348.00 353.00 L 343.25 353.02 C343.08,353.02 342.86,353.02 342.59,353.03 C343.11,353.01 343.50,353.00 343.75,353.00 ZM 907.00 309.71 L 908.81 309.87 L 907.00 309.74 ZM 921.97 316.19 C918.30,316.38 915.56,316.54 914.25,316.64 C915.82,316.51 918.58,316.35 921.97,316.19 ZM 344.25 316.85 C344.06,316.84 343.86,316.83 343.65,316.82 C343.89,316.83 344.09,316.84 344.25,316.85 C346.08,316.92 347.02,316.94 347.50,316.50 C347.02,316.94 346.08,316.92 344.25,316.85 Z" fill="rgb(120,107,76)"/>
<path d="M 721.00 196.00 L 762.83 196.00 L 770.73 207.25 C792.38,238.10 820.59,278.44 828.20,289.43 L 833.00 296.36 L 833.00 238.00 L 846.35 238.00 C853.70,238.00 862.47,237.71 865.85,237.36 L 872.00 236.72 L 872.00 370.00 L 836.24 370.00 L 807.62 332.06 C806.20,330.17 804.84,328.37 803.54,326.65 C783.02,299.47 777.90,292.69 779.13,287.39 C779.62,285.29 781.09,283.43 783.00,280.62 C785.20,277.39 787.49,272.89 788.10,270.62 C790.34,262.34 787.30,251.66 780.60,244.24 C777.04,240.30 771.53,237.14 770.32,238.35 C769.98,238.69 770.49,243.75 771.45,249.59 L 773.19 260.22 L 769.35 264.15 C764.23,269.39 762.11,269.78 755.66,266.62 L 750.34 264.02 L 748.80 252.98 C747.96,246.90 746.98,241.64 746.63,241.29 C745.41,240.08 740.72,245.54 737.87,251.50 C735.58,256.28 735.00,258.88 735.00,264.28 C735.00,275.20 738.32,280.87 748.61,287.50 C752.14,289.78 754.38,292.16 755.86,295.22 C757.92,299.47 758.00,300.92 758.00,334.82 L 758.00 370.00 L 721.00 370.00 ZM 622.49 70.74 L 625.50 68.61 L 625.17 55.55 C624.98,48.37 624.67,42.34 624.48,42.15 C624.24,41.90 617.54,46.39 594.72,62.30 C604.62,55.39 612.03,50.23 615.11,48.11 L 625.71 40.82 L 646.11 55.88 C657.32,64.17 674.28,76.70 683.79,83.73 C693.29,90.75 719.81,110.56 742.71,127.75 C765.61,144.94 784.72,159.00 785.17,159.00 C785.63,159.00 786.00,152.93 786.00,145.50 L 786.00 132.00 L 824.00 132.00 L 824.00 188.97 L 846.25 205.61 C858.49,214.77 869.16,222.88 869.96,223.63 C871.21,224.79 868.69,225.00 853.28,225.00 L 835.13 225.00 L 806.82 203.86 C791.24,192.23 775.58,180.48 772.00,177.74 C740.43,153.55 628.27,70.04 626.39,69.32 C625.81,69.10 624.23,69.70 622.49,70.74 ZM 1022.75 473.43 C1022.34,473.01 1022.00,456.96 1022.00,437.76 L 1022.00 402.84 L 1040.83 403.17 L 1059.66 403.50 L 1064.56 406.53 C1067.58,408.40 1070.60,411.42 1072.47,414.44 C1075.46,419.27 1075.50,419.54 1075.84,435.31 C1076.07,445.93 1075.77,452.76 1074.95,455.69 C1073.00,462.66 1068.64,467.81 1062.18,470.80 C1056.93,473.23 1055.26,473.45 1040.00,473.81 C1030.93,474.03 1023.16,473.86 1022.75,473.43 ZM 841.50 473.67 C825.82,468.45 822.56,461.69 823.19,435.65 C823.61,418.01 824.50,414.77 830.63,408.64 C836.03,403.25 838.51,402.50 851.08,402.50 C862.18,402.50 862.86,402.62 867.58,405.50 C871.44,407.85 873.15,409.80 875.50,414.50 C878.38,420.27 878.51,421.10 878.85,436.14 C879.38,459.43 876.43,466.99 864.87,471.96 C858.49,474.71 847.12,475.54 841.50,473.67 ZM 907.24 473.35 C900.16,471.18 893.64,465.34 891.59,459.32 C889.72,453.82 889.33,424.95 891.05,418.78 C894.02,408.07 903.43,402.09 917.38,402.03 C927.93,401.99 932.52,403.53 938.14,408.98 C944.11,414.77 945.12,418.24 945.73,435.07 C946.54,457.50 943.15,466.75 932.29,471.73 C925.12,475.01 914.84,475.67 907.24,473.35 ZM 958.67 473.33 C958.30,472.97 958.00,456.96 958.00,437.76 L 958.00 402.84 L 995.83 403.50 L 1000.17 406.51 C1006.45,410.88 1009.01,416.53 1008.98,425.96 C1008.95,435.18 1006.78,440.53 1001.66,444.02 C999.65,445.38 998.01,446.85 998.01,447.28 C998.00,448.44 1002.18,456.47 1007.32,465.16 C1009.82,469.37 1011.59,473.08 1011.26,473.41 C1010.93,473.73 1007.18,474.00 1002.92,474.00 L 995.18 474.00 L 988.70 461.75 L 982.22 449.50 L 977.61 449.20 L 973.00 448.89 L 973.00 474.00 L 966.17 474.00 C962.41,474.00 959.03,473.70 958.67,473.33 ZM 755.71 473.37 C755.32,472.99 755.00,456.99 755.00,437.83 L 755.00 403.00 L 769.50 403.08 L 794.50 444.50 L 794.77 423.75 L 795.04 403.00 L 810.00 403.00 L 810.00 474.00 L 803.57 474.00 C799.42,474.00 796.67,473.51 795.82,472.62 C795.09,471.87 789.33,462.65 783.00,452.15 C776.67,441.64 771.17,433.04 770.77,433.02 C770.37,433.01 769.92,442.11 769.77,453.25 L 769.50 473.50 L 762.96 473.79 C759.36,473.95 756.10,473.76 755.71,473.37 ZM 858.93 459.12 C862.54,456.55 863.85,451.63 863.86,440.50 C863.90,421.10 861.61,416.09 852.34,415.32 C846.85,414.86 843.66,416.20 840.69,420.20 C838.86,422.66 838.70,424.27 838.89,438.09 C839.04,449.21 839.49,454.04 840.57,456.14 C841.39,457.71 842.15,459.01 842.28,459.02 C842.40,459.02 844.30,459.68 846.50,460.48 C851.03,462.13 855.37,461.65 858.93,459.12 ZM 924.40 459.86 C928.93,457.80 930.00,453.62 930.00,438.05 C930.00,421.75 929.07,418.76 923.26,416.33 C916.09,413.34 908.71,416.34 906.07,423.32 C904.71,426.91 904.69,448.33 906.04,453.20 C907.49,458.42 911.14,461.00 917.09,461.00 C919.74,461.00 923.03,460.49 924.40,459.86 ZM 1055.13 458.40 C1059.36,456.27 1061.00,450.57 1061.00,437.95 C1061.00,420.13 1058.68,416.89 1045.47,416.19 L 1037.00 415.75 L 1037.00 459.87 L 1040.25 460.25 C1045.00,460.80 1052.11,459.91 1055.13,458.40 ZM 906.54 358.37 C906.15,356.28 906.29,354.31 906.88,353.72 C907.42,353.18 916.48,353.20 932.27,353.75 C933.06,353.78 933.88,353.82 934.71,353.85 C950.76,354.55 964.16,355.15 974.97,355.66 L 974.98 355.66 C977.43,355.78 979.94,355.91 982.50,356.05 C985.95,356.23 989.80,356.41 993.63,356.56 L 993.63 356.56 C1004.39,357.11 1009.72,357.47 1009.92,357.64 C1010.15,357.84 1010.07,358.26 1009.75,358.58 C1009.38,358.95 999.53,359.50 983.84,360.10 L 983.84 360.10 C974.10,360.42 963.75,360.76 955.50,361.03 L 955.48 361.03 C949.27,361.21 942.71,361.39 935.89,361.56 L 919.85 361.96 C918.87,361.97 918.03,361.98 917.36,361.98 L 907.22 362.00 ZM 322.00 361.41 C320.62,361.26 300.49,360.58 277.24,359.90 C273.11,359.78 269.12,359.66 265.36,359.54 C256.26,359.03 252.00,358.55 252.00,358.06 C252.00,357.64 258.19,357.01 265.75,356.64 C270.15,356.43 278.58,356.02 288.06,355.55 C295.32,355.21 302.63,354.86 309.00,354.54 C324.01,353.79 338.11,353.15 342.59,353.03 L 342.59 353.03 C342.86,353.02 343.08,353.02 343.25,353.02 L 348.00 353.00 L 348.00 362.00 L 336.25 361.85 C334.34,361.82 331.54,361.77 328.19,361.69 C325.13,361.60 322.77,361.50 322.00,361.41 ZM 967.32 336.04 C951.84,336.63 936.96,337.24 926.65,337.71 C918.72,338.05 912.96,338.36 911.59,338.52 C909.60,338.60 907.99,338.52 907.63,338.29 C907.28,337.79 907.00,335.85 907.00,333.83 L 907.00 330.00 L 917.75 330.02 C918.38,330.02 919.16,330.03 920.05,330.05 C925.98,330.18 936.98,330.58 948.77,331.07 C948.77,331.07 948.77,331.07 948.78,331.07 C951.86,331.20 954.96,331.35 958.00,331.50 C965.85,331.89 974.12,332.25 981.21,332.53 C988.51,332.89 993.78,333.20 995.00,333.37 C996.38,333.55 994.80,333.77 991.50,333.86 C988.20,333.94 983.92,334.42 982.00,334.92 C980.90,335.20 975.24,335.62 967.32,336.04 ZM 629.67 163.33 C629.30,162.97 629.00,158.47 629.00,153.33 L 629.00 144.00 L 632.25 143.99 C634.04,143.99 638.54,143.70 642.25,143.35 L 649.00 142.71 L 649.00 164.00 L 639.67 164.00 C634.53,164.00 630.03,163.70 629.67,163.33 ZM 602.67 163.33 C602.30,162.97 602.00,158.47 602.00,153.33 L 602.00 144.00 L 622.00 144.00 L 622.00 164.00 L 612.67 164.00 C607.53,164.00 603.03,163.70 602.67,163.33 ZM 602.67 137.33 C602.30,136.97 602.00,132.47 602.00,127.33 L 602.00 118.00 L 622.00 118.00 L 622.00 136.71 L 615.25 137.35 C606.59,138.17 603.50,138.16 602.67,137.33 ZM 632.25 137.30 L 629.00 136.87 L 629.00 118.00 L 649.07 118.00 L 648.79 127.75 L 648.50 137.50 L 642.00 137.61 C638.42,137.67 634.04,137.53 632.25,137.30 ZM 990.48 433.75 C993.60,431.04 994.76,425.26 993.03,421.08 C991.51,417.40 987.74,416.00 979.35,416.00 L 973.00 416.00 L 973.00 425.33 C973.00,430.47 973.30,434.97 973.67,435.33 C974.03,435.70 977.38,436.00 981.11,436.00 C986.71,436.00 988.34,435.61 990.48,433.75 ZM 221.50 511.91 C196.01,511.11 188.20,510.47 189.39,509.28 C190.30,508.36 216.20,507.14 238.84,506.95 C260.10,506.77 262.61,507.22 260.37,510.78 C259.03,512.92 256.10,513.00 221.50,511.91 ZM 996.51 511.63 C995.30,510.75 994.91,509.67 995.37,508.48 C996.01,506.82 997.81,506.72 1028.78,507.28 C1057.83,507.80 1068.89,508.65 1065.09,510.10 C1062.65,510.44 1058.57,510.73 1052.27,511.06 C1050.03,511.18 1047.85,511.29 1045.73,511.39 C1045.16,511.41 1044.58,511.43 1044.00,511.45 C1034.35,511.75 1020.90,512.22 1013.20,512.53 C1003.23,512.65 997.50,512.36 996.51,511.63 ZM 925.45 310.89 L 925.45 310.89 C930.81,311.15 937.23,311.42 942.98,311.63 C953.14,311.99 962.59,312.61 963.98,312.99 C966.26,313.63 966.12,313.75 962.50,314.30 C962.05,314.37 961.25,314.45 960.19,314.53 C957.65,314.64 954.97,314.75 952.21,314.86 C940.88,315.30 929.46,315.80 921.97,316.19 C918.81,316.34 916.19,316.49 914.58,316.62 C914.46,316.63 914.35,316.63 914.25,316.64 L 907.00 317.23 L 907.00 309.74 L 908.81 309.87 L 914.25 310.34 C915.96,310.49 920.04,310.69 925.45,310.89 ZM 481.62 512.48 C480.73,511.59 480.00,510.47 480.00,510.00 C480.00,508.45 483.21,505.89 484.76,506.20 C487.24,506.69 488.67,509.71 487.39,511.75 C485.89,514.14 483.57,514.43 481.62,512.48 ZM 734.20 512.80 C731.35,509.95 734.62,505.15 738.43,506.61 C741.37,507.74 739.73,514.00 736.50,514.00 C735.90,514.00 734.86,513.46 734.20,512.80 ZM 494.50 132.48 C518.81,115.39 558.43,87.64 585.93,68.43 C572.71,77.67 555.29,89.88 532.50,105.88 C507.42,123.49 483.06,140.57 473.91,146.96 C482.12,141.19 489.43,136.05 494.50,132.48 ZM 615.63 75.59 C608.76,80.48 596.92,88.70 575.50,103.48 C593.61,90.98 605.99,82.38 615.63,75.59 Z" fill="rgb(239,179,19)"/>
<path d="M 300.67 519.33 C300.30,518.97 300.00,514.92 300.00,510.33 L 300.00 502.00 L 306.08 502.00 C313.23,502.00 314.08,504.30 307.11,504.81 C303.77,505.06 302.94,505.48 303.20,506.81 C303.42,507.97 304.70,508.60 307.32,508.81 C312.21,509.22 311.69,511.39 306.61,511.81 C303.42,512.08 302.92,512.44 303.19,514.31 C303.44,516.11 304.26,516.55 307.75,516.81 C310.09,516.98 312.00,517.48 312.00,517.93 C312.00,519.48 302.04,520.71 300.67,519.33 ZM 321.67 519.33 C321.30,518.97 321.00,515.62 321.00,511.90 C321.00,505.73 320.81,505.11 318.83,504.82 C317.63,504.64 316.47,503.94 316.24,503.25 C315.94,502.33 317.71,502.00 323.00,502.00 C328.29,502.00 330.06,502.33 329.76,503.25 C329.53,503.94 328.14,504.64 326.67,504.82 C324.04,505.13 324.00,505.25 324.00,512.57 C324.00,519.40 323.42,521.09 321.67,519.33 ZM 372.41 519.08 C372.19,518.85 372.00,514.92 372.00,510.33 C372.00,503.70 372.30,502.00 373.46,502.00 C374.57,502.00 374.98,503.70 375.21,509.25 L 375.50 516.50 L 379.75 516.81 C382.09,516.98 384.00,517.50 384.00,517.96 C384.00,518.82 373.19,519.86 372.41,519.08 ZM 390.75 519.18 L 388.00 518.87 L 388.00 510.43 L 388.00 502.00 L 393.25 502.02 C400.23,502.04 401.44,502.91 400.71,507.38 C400.39,509.35 400.55,511.22 401.07,511.54 C402.42,512.38 402.21,516.59 400.75,517.75 C399.25,518.95 394.54,519.62 390.75,519.18 ZM 397.96 515.54 C399.72,513.43 398.36,512.00 394.58,512.00 C391.60,512.00 391.32,512.24 391.76,514.50 C392.30,517.36 395.94,517.98 397.96,515.54 ZM 397.81 506.75 C398.07,505.39 397.46,505.00 395.07,505.00 C392.63,505.00 392.00,505.43 392.00,507.07 C392.00,508.73 392.54,509.07 394.74,508.82 C396.39,508.63 397.61,507.81 397.81,506.75 ZM 406.64 519.22 C406.28,518.65 407.28,514.65 408.87,510.34 C410.98,504.58 412.26,502.42 413.70,502.20 C415.58,501.92 416.75,504.15 421.57,517.25 C422.02,518.48 421.71,519.00 420.51,519.00 C419.58,519.00 418.56,518.05 418.26,516.89 C417.79,515.09 417.19,514.87 414.13,515.37 C412.15,515.69 409.82,516.91 408.92,518.11 C407.93,519.42 407.03,519.86 406.64,519.22 ZM 416.00 511.43 C416.00,510.57 415.49,508.92 414.87,507.76 C413.77,505.71 413.71,505.73 412.51,508.58 C411.83,510.18 411.47,511.84 411.70,512.25 C412.49,513.67 416.00,513.01 416.00,511.43 ZM 508.70 519.36 C508.31,518.98 508.00,514.89 508.00,510.28 L 508.00 501.90 L 513.65 502.20 C520.12,502.54 522.40,504.53 520.26,507.95 C519.49,509.18 519.40,510.13 520.02,510.51 C521.42,511.38 521.23,516.57 519.75,517.75 C518.14,519.03 509.61,520.28 508.70,519.36 ZM 517.82 514.25 C518.10,512.28 517.70,512.00 514.57,512.00 C511.77,512.00 511.00,512.40 511.00,513.83 C511.00,516.38 512.01,517.14 514.96,516.80 C516.72,516.59 517.60,515.81 517.82,514.25 ZM 517.81 506.75 C518.08,505.35 517.44,505.00 514.57,505.00 C511.18,505.00 509.87,506.54 511.71,508.38 C513.05,509.71 517.48,508.53 517.81,506.75 ZM 548.41 518.85 C548.01,518.20 547.78,514.85 547.91,511.41 C548.13,505.26 548.08,505.14 545.39,504.82 C543.89,504.65 542.47,503.94 542.24,503.25 C541.94,502.33 543.71,502.00 549.00,502.00 C554.29,502.00 556.06,502.33 555.76,503.25 C555.53,503.94 554.37,504.64 553.17,504.82 C551.18,505.11 551.00,505.72 551.00,512.01 C551.00,518.60 549.96,521.36 548.41,518.85 ZM 581.79 518.45 C576.73,515.70 576.24,505.55 581.04,502.98 C583.40,501.72 588.61,501.72 590.99,502.99 C594.06,504.64 595.36,510.20 593.63,514.33 C591.33,519.84 587.08,521.32 581.79,518.45 ZM 589.17 515.35 C590.99,513.70 591.56,509.61 590.39,506.58 C589.67,504.69 583.98,504.42 582.20,506.20 C580.47,507.93 580.73,513.04 582.65,515.17 C584.71,517.44 586.79,517.50 589.17,515.35 ZM 601.45 517.55 C599.35,515.44 599.00,514.16 599.00,508.55 C599.00,503.39 599.32,502.00 600.50,502.00 C601.68,502.00 602.00,503.37 602.00,508.33 C602.00,514.04 602.24,514.79 604.47,515.98 C608.46,518.12 610.00,516.01 610.00,508.38 C610.00,503.38 610.32,502.00 611.50,502.00 C612.69,502.00 613.00,503.44 613.00,509.00 C613.00,514.67 612.62,516.38 611.00,518.00 C608.30,520.70 604.43,520.52 601.45,517.55 ZM 764.41 519.19 C763.47,518.56 757.98,504.49 758.00,502.75 C758.00,502.34 758.64,502.00 759.42,502.00 C760.28,502.00 761.69,504.57 763.00,508.50 C764.19,512.08 765.31,515.00 765.50,515.00 C765.69,515.00 766.81,512.08 768.00,508.50 C769.40,504.29 770.70,502.00 771.69,502.00 C772.53,502.00 773.01,502.56 772.75,503.25 C772.50,503.94 771.30,507.50 770.09,511.17 C767.81,518.08 766.17,520.39 764.41,519.19 ZM 781.50 518.89 C778.14,516.98 777.00,514.81 777.00,510.31 C777.00,504.19 779.60,501.80 785.80,502.20 C790.12,502.48 790.65,502.80 792.33,506.24 C793.85,509.37 793.97,510.56 793.03,513.41 C792.41,515.30 791.32,517.32 790.60,517.91 C788.56,519.61 783.69,520.13 781.50,518.89 ZM 788.17 515.35 C789.99,513.70 790.56,509.61 789.39,506.58 C788.67,504.69 782.98,504.42 781.20,506.20 C779.47,507.93 779.73,513.04 781.65,515.17 C783.71,517.44 785.79,517.50 788.17,515.35 ZM 800.92 517.08 C797.12,513.28 796.85,507.43 800.31,504.17 C803.83,500.87 810.20,501.16 813.02,504.75 C817.35,510.23 813.08,520.00 806.37,520.00 C804.91,520.00 802.61,518.76 800.92,517.08 ZM 808.60 516.23 C810.65,514.86 812.17,510.82 811.56,508.37 C810.03,502.30 801.00,503.86 801.00,510.19 C801.00,515.19 805.18,518.52 808.60,516.23 ZM 829.13 517.44 C827.96,515.95 827.00,514.34 827.00,513.87 C827.00,513.39 826.10,513.00 825.00,513.00 C823.44,513.00 823.00,513.67 823.00,516.00 C823.00,518.00 822.50,519.00 821.50,519.00 C820.28,519.00 820.00,517.39 820.00,510.50 L 820.00 502.00 L 824.93 502.00 C832.24,502.00 835.48,506.60 831.37,511.15 C829.86,512.81 829.86,513.14 831.46,515.58 C833.93,519.35 831.90,520.97 829.13,517.44 ZM 829.40 508.41 C830.30,506.05 829.24,505.00 825.94,505.00 C823.47,505.00 823.00,505.40 823.00,507.50 C823.00,509.59 823.47,510.00 825.89,510.00 C827.62,510.00 829.03,509.36 829.40,508.41 ZM 945.67 519.33 C945.30,518.97 945.00,514.92 945.00,510.33 L 945.00 502.00 L 951.08 502.00 C958.23,502.00 959.08,504.30 952.11,504.81 C948.77,505.06 947.94,505.48 948.20,506.81 C948.42,507.97 949.70,508.60 952.32,508.81 C957.21,509.22 956.69,511.39 951.61,511.81 C948.42,512.08 947.92,512.44 948.19,514.31 C948.44,516.11 949.26,516.55 952.75,516.81 C955.09,516.98 957.00,517.48 957.00,517.93 C957.00,519.48 947.04,520.71 945.67,519.33 ZM 962.68 519.35 C962.31,518.97 962.00,514.92 962.00,510.33 C962.00,503.06 962.22,502.00 963.75,502.02 C964.74,502.03 967.00,504.30 968.96,507.27 C970.88,510.18 972.52,511.83 972.64,511.00 C973.77,503.42 974.23,502.00 975.55,502.00 C976.69,502.00 977.00,503.59 977.00,509.42 C977.00,517.05 976.42,520.00 974.93,520.00 C974.46,520.00 972.15,517.19 969.79,513.75 L 965.50 507.50 L 965.19 513.00 C964.89,518.44 964.01,520.67 962.68,519.35 ZM 281.00 510.50 L 281.00 502.00 L 286.25 502.02 C293.09,502.04 294.39,502.92 293.77,507.12 C293.50,508.97 293.75,511.23 294.33,512.16 C295.08,513.36 295.05,514.59 294.22,516.43 C293.14,518.78 292.52,519.00 287.02,519.00 L 281.00 519.00 L 281.00 510.50 ZM 290.96 515.54 C292.67,513.49 291.39,512.00 287.94,512.00 C285.76,512.00 285.00,512.47 285.00,513.83 C285.00,514.84 285.30,515.97 285.67,516.33 C286.82,517.49 289.71,517.06 290.96,515.54 ZM 290.81 506.75 C291.08,505.36 290.44,505.00 287.67,505.00 C284.65,505.00 284.26,505.27 284.72,507.05 C285.40,509.65 290.31,509.41 290.81,506.75 ZM 331.54 517.25 C331.95,516.29 333.41,512.46 334.78,508.75 C336.59,503.82 337.75,502.00 339.07,502.00 C340.07,502.00 341.15,502.44 341.49,502.98 C342.31,504.30 347.00,517.30 347.00,518.25 C347.00,519.92 344.20,518.86 343.71,517.00 C343.31,515.46 342.35,515.00 339.50,515.00 C336.65,515.00 335.69,515.46 335.29,517.00 C334.99,518.15 333.93,519.00 332.78,519.00 C331.26,519.00 330.97,518.58 331.54,517.25 ZM 341.17 510.50 C340.81,508.35 339.31,506.35 338.60,507.07 C338.36,507.31 337.84,508.78 337.45,510.34 C336.81,512.91 336.96,513.14 339.12,512.84 C340.87,512.59 341.41,511.97 341.17,510.50 ZM 351.17 518.22 C351.35,517.79 352.81,513.94 354.40,509.67 C356.85,503.12 357.63,501.95 359.37,502.20 C360.94,502.43 362.11,504.31 364.21,510.00 C365.73,514.12 366.99,517.84 366.99,518.25 C367.01,519.78 364.44,518.94 363.25,517.02 C362.27,515.45 361.34,515.18 358.76,515.68 C356.97,516.02 355.14,516.91 354.70,517.65 C353.87,519.06 350.58,519.58 351.17,518.22 ZM 361.22 512.44 C361.91,511.76 359.83,506.00 358.90,506.00 C358.21,506.00 357.04,509.57 357.01,511.75 C357.00,512.99 360.16,513.51 361.22,512.44 ZM 426.00 518.34 C426.00,517.97 427.41,514.14 429.13,509.84 C433.77,498.20 434.78,498.79 441.57,517.25 C442.02,518.48 441.71,519.00 440.51,519.00 C439.58,519.00 438.57,518.06 438.27,516.91 C437.80,515.12 437.22,514.92 434.11,515.48 C432.12,515.83 430.00,516.77 429.39,517.56 C428.26,519.03 426.00,519.54 426.00,518.34 ZM 435.99 511.75 C435.96,509.57 434.79,506.00 434.10,506.00 C433.17,506.00 431.09,511.76 431.78,512.44 C432.84,513.51 436.00,512.99 435.99,511.75 ZM 447.00 510.50 L 447.00 502.00 L 452.52 502.00 C457.50,502.00 458.16,502.26 459.23,504.60 C460.21,506.76 460.11,507.74 458.68,510.24 C457.11,512.98 457.09,513.48 458.47,515.60 C460.39,518.52 460.38,519.00 458.45,519.00 C457.60,519.00 456.14,517.65 455.20,516.01 C452.92,511.99 450.00,511.98 450.00,516.00 C450.00,518.00 449.50,519.00 448.50,519.00 C447.28,519.00 447.00,517.39 447.00,510.50 ZM 456.50 507.50 C456.50,505.97 455.73,505.43 453.25,505.19 C450.33,504.90 450.00,505.14 450.00,507.50 C450.00,509.86 450.33,510.10 453.25,509.81 C455.73,509.57 456.50,509.03 456.50,507.50 ZM 527.00 510.50 L 527.00 502.00 L 532.50 502.00 C536.72,502.00 538.00,502.35 538.00,503.50 C538.00,504.58 536.89,505.00 534.00,505.00 C530.71,505.00 530.00,505.34 530.00,506.94 C530.00,508.46 530.81,508.95 533.75,509.19 C538.63,509.59 538.59,511.41 533.69,511.81 C530.42,512.08 529.92,512.44 530.19,514.31 C530.44,516.05 531.27,516.56 534.25,516.81 C540.05,517.29 538.68,519.00 532.50,519.00 L 527.00 519.00 L 527.00 510.50 ZM 560.00 510.50 L 560.00 502.00 L 565.30 502.00 C568.22,502.00 571.14,502.54 571.80,503.20 C573.50,504.90 573.29,509.02 571.40,511.11 C569.93,512.73 569.93,513.07 571.40,515.16 C573.39,518.00 573.42,519.00 571.53,519.00 C570.71,519.00 569.35,517.65 568.50,516.00 C567.57,514.20 566.16,513.00 564.97,513.00 C563.45,513.00 563.00,513.68 563.00,516.00 C563.00,518.00 562.50,519.00 561.50,519.00 C560.28,519.00 560.00,517.39 560.00,510.50 ZM 569.82 507.25 C570.10,505.28 569.70,505.00 566.57,505.00 C563.77,505.00 563.00,505.40 563.00,506.83 C563.00,509.38 564.01,510.14 566.96,509.80 C568.72,509.59 569.60,508.81 569.82,507.25 ZM 620.55 513.53 C617.78,504.01 617.57,502.00 619.30,502.00 C620.37,502.00 621.24,503.72 622.09,507.50 C622.76,510.52 623.63,513.00 624.00,513.00 C624.37,513.00 625.24,510.52 625.91,507.50 C626.86,503.25 627.57,502.00 629.00,502.00 C630.43,502.00 631.14,503.25 632.09,507.50 C632.76,510.52 633.66,513.00 634.09,513.00 C634.51,513.00 635.37,510.52 636.00,507.50 C636.79,503.68 637.62,502.00 638.70,502.00 C639.89,502.00 640.11,502.70 639.64,505.03 C636.67,519.91 633.32,523.19 631.00,513.50 C630.27,510.48 629.33,508.00 628.91,508.00 C628.49,508.00 627.59,510.48 626.91,513.50 C625.22,521.07 622.75,521.09 620.55,513.53 ZM 645.00 510.50 L 645.00 502.00 L 650.38 502.00 C656.56,502.00 658.03,503.18 658.00,508.11 C657.99,509.98 658.01,512.55 658.04,513.83 C658.16,517.70 656.24,519.00 650.38,519.00 L 645.00 519.00 L 645.00 510.50 ZM 654.82 514.25 C655.10,512.28 654.70,512.00 651.57,512.00 C648.77,512.00 648.00,512.40 648.00,513.83 C648.00,516.38 649.01,517.14 651.96,516.80 C653.72,516.59 654.60,515.81 654.82,514.25 ZM 654.32 507.60 C655.06,505.67 654.16,505.00 650.83,505.00 C648.17,505.00 647.05,506.72 648.67,508.33 C649.87,509.54 653.77,509.03 654.32,507.60 ZM 662.00 518.59 C662.00,518.36 663.40,514.51 665.11,510.03 C667.78,503.04 668.52,501.93 670.36,502.19 C672.03,502.43 673.09,504.15 675.19,510.00 C676.67,514.12 677.90,517.84 677.94,518.25 C678.08,519.94 675.09,518.85 674.50,517.00 C674.03,515.52 672.99,515.00 670.47,515.00 C668.09,515.00 666.75,515.60 666.00,517.00 C665.10,518.68 662.00,519.91 662.00,518.59 ZM 671.61 509.82 C670.94,506.45 670.31,505.36 669.51,506.16 C669.24,506.43 668.73,508.08 668.39,509.82 C667.82,512.64 668.01,513.00 670.00,513.00 C671.99,513.00 672.18,512.64 671.61,509.82 ZM 682.05 517.75 C682.08,517.06 683.38,513.35 684.93,509.50 C689.02,499.39 690.88,499.47 694.91,509.91 C696.61,514.32 698.00,518.17 698.00,518.47 C698.00,519.60 695.06,518.93 694.30,517.62 C693.86,516.86 692.07,515.93 690.32,515.56 C687.72,515.00 686.94,515.25 686.03,516.94 C684.83,519.18 681.97,519.77 682.05,517.75 ZM 691.63 510.75 C691.30,509.51 691.02,507.94 691.01,507.25 C690.99,504.98 689.46,505.95 688.33,508.94 C687.08,512.24 687.45,513.00 690.28,513.00 C691.82,513.00 692.10,512.52 691.63,510.75 ZM 702.64 514.40 C702.29,511.86 702.29,508.04 702.63,505.90 L 703.26 502.00 L 708.65 502.00 C713.49,502.00 714.16,502.27 715.23,504.60 C716.21,506.75 716.12,507.73 714.72,510.17 C713.18,512.85 713.16,513.41 714.53,516.07 C715.90,518.71 715.90,519.00 714.48,519.00 C713.61,519.00 712.14,517.65 711.20,516.01 C708.92,511.99 706.00,511.98 706.00,516.00 C706.00,520.95 703.37,519.69 702.64,514.40 ZM 712.40 508.41 C713.30,506.05 712.24,505.00 708.94,505.00 C706.47,505.00 706.00,505.40 706.00,507.50 C706.00,509.59 706.47,510.00 708.89,510.00 C710.62,510.00 712.03,509.36 712.40,508.41 ZM 847.00 510.50 C847.00,503.61 847.28,502.00 848.50,502.00 C849.72,502.00 850.00,503.61 850.00,510.50 C850.00,517.39 849.72,519.00 848.50,519.00 C847.28,519.00 847.00,517.39 847.00,510.50 ZM 856.00 510.50 L 856.00 502.00 L 861.50 502.00 C865.72,502.00 867.00,502.35 867.00,503.50 C867.00,504.58 865.89,505.00 863.00,505.00 C859.67,505.00 859.00,505.33 859.00,507.00 C859.00,508.67 859.67,509.00 863.08,509.00 C868.33,509.00 867.93,511.37 862.61,511.81 C859.42,512.08 858.92,512.44 859.19,514.31 C859.44,516.11 860.26,516.55 863.77,516.81 C869.84,517.25 867.97,519.00 861.44,519.00 L 856.00 519.00 L 856.00 510.50 ZM 872.62 518.20 C872.35,517.75 872.39,513.93 872.71,509.70 L 873.29 502.00 L 878.14 502.00 C884.58,502.00 887.00,504.32 887.00,510.50 C887.00,516.71 884.59,519.00 878.06,519.00 C875.34,519.00 872.89,518.64 872.62,518.20 ZM 882.94 514.57 C883.59,513.78 883.99,511.42 883.81,509.32 C883.52,505.69 883.31,505.48 879.75,505.19 L 876.00 504.88 L 876.00 510.44 C876.00,515.90 876.05,516.00 878.88,516.00 C880.46,516.00 882.29,515.36 882.94,514.57 ZM 893.00 510.50 L 893.00 502.00 L 898.50 502.00 C902.72,502.00 904.00,502.35 904.00,503.50 C904.00,504.58 902.89,505.00 900.00,505.00 C896.71,505.00 896.00,505.34 896.00,506.94 C896.00,508.46 896.81,508.95 899.75,509.19 C904.63,509.59 904.59,511.41 899.69,511.81 C896.42,512.08 895.92,512.44 896.19,514.31 C896.44,516.11 897.26,516.55 900.77,516.81 C906.84,517.25 904.97,519.00 898.44,519.00 L 893.00 519.00 L 893.00 510.50 ZM 909.52 518.02 C909.18,517.49 909.22,513.66 909.59,509.52 L 910.28 502.00 L 915.07 502.00 C922.29,502.00 924.98,505.73 921.41,510.82 C919.96,512.89 919.96,513.30 921.41,515.51 C923.37,518.49 923.39,519.00 921.57,519.00 C920.78,519.00 919.17,517.65 918.00,516.00 C916.83,514.35 915.22,513.00 914.43,513.00 C913.51,513.00 913.00,514.06 913.00,516.00 C913.00,518.95 910.86,520.20 909.52,518.02 ZM 918.72 508.88 C920.53,507.07 919.02,505.00 915.89,505.00 C913.47,505.00 913.00,505.41 913.00,507.50 C913.00,509.44 913.51,510.00 915.30,510.00 C916.57,510.00 918.10,509.50 918.72,508.88 ZM 928.00 510.50 L 928.00 502.00 L 934.08 502.00 C941.23,502.00 942.08,504.30 935.11,504.81 C931.77,505.06 930.94,505.48 931.20,506.81 C931.42,507.97 932.70,508.60 935.32,508.81 C940.21,509.22 939.69,511.39 934.61,511.81 C931.42,512.08 930.92,512.44 931.19,514.31 C931.44,516.11 932.26,516.55 935.75,516.81 C942.20,517.27 940.83,519.00 934.00,519.00 L 928.00 519.00 L 928.00 510.50 ZM 329.58 473.04 C323.44,470.57 318.38,465.84 315.63,460.00 C313.68,455.85 313.49,453.48 313.17,429.25 L 312.83 403.00 L 321.91 403.00 L 331.00 403.00 L 331.03 428.25 C331.07,454.93 331.06,454.91 335.97,458.30 C339.15,460.48 346.81,460.53 349.88,458.37 C354.46,455.16 355.00,451.79 355.00,426.53 L 355.00 403.00 L 363.50 403.00 L 372.00 403.00 L 372.00 427.84 C372.00,455.33 371.41,459.17 366.13,465.84 C361.60,471.56 354.64,474.28 343.50,474.69 C336.30,474.96 333.51,474.63 329.58,473.04 ZM 401.50 474.06 C397.58,473.10 388.70,468.55 387.19,466.73 C386.53,465.94 385.71,462.53 385.36,459.15 L 384.72 453.00 L 391.70 453.00 C398.21,453.00 398.76,453.17 399.84,455.55 C401.48,459.14 407.24,461.31 413.70,460.77 C419.85,460.27 423.00,457.94 423.00,453.92 C423.00,450.11 420.86,448.29 414.19,446.44 C391.48,440.12 386.02,435.52 386.01,422.72 C385.99,414.70 390.43,408.18 398.50,404.38 C407.61,400.08 426.18,401.43 433.93,406.95 C436.86,409.03 437.00,409.47 437.00,416.12 L 437.00 423.10 L 430.78 422.80 C425.36,422.54 424.40,422.19 423.37,420.11 C421.64,416.64 420.18,416.03 413.47,416.02 C406.25,416.00 403.00,417.82 403.00,421.90 C403.00,425.92 405.37,427.54 415.51,430.45 C431.44,435.01 434.92,436.96 438.02,443.04 C440.72,448.33 440.70,457.71 437.97,463.05 C435.37,468.15 429.25,472.57 422.90,473.93 C417.34,475.12 406.11,475.19 401.50,474.06 ZM 544.17 473.09 C541.11,472.04 537.20,469.65 534.96,467.46 C528.54,461.19 528.00,458.21 528.00,428.82 L 528.00 403.00 L 536.45 403.00 L 544.90 403.00 L 545.20 428.58 L 545.50 454.17 L 548.77 457.08 C551.40,459.44 552.95,460.00 556.79,460.00 C559.58,460.00 562.52,459.32 563.88,458.37 C568.46,455.16 569.00,451.79 569.00,426.53 L 569.00 403.00 L 577.50 403.00 L 586.00 403.00 L 586.00 427.82 C586.00,457.17 585.33,460.72 578.53,467.53 C575.53,470.52 572.55,472.35 568.91,473.43 C561.83,475.54 550.81,475.39 544.17,473.09 ZM 184.67 473.33 C184.30,472.97 184.00,456.99 184.00,437.83 L 184.00 403.00 L 192.47 403.00 L 200.95 403.00 L 201.22 418.01 L 201.50 433.02 L 213.00 418.02 L 224.50 403.02 L 234.71 403.01 L 244.92 403.00 L 235.16 415.25 C229.80,421.99 224.24,429.08 222.82,431.00 L 220.23 434.50 L 232.08 452.50 C238.60,462.40 244.42,471.07 245.02,471.76 C246.67,473.69 244.46,474.12 234.57,473.79 L 225.79 473.50 L 217.50 460.53 C212.94,453.40 208.77,447.42 208.24,447.25 C207.71,447.07 205.86,448.53 204.14,450.50 C201.07,453.99 201.00,454.29 201.00,464.03 L 201.00 474.00 L 193.17 474.00 C188.86,474.00 185.03,473.70 184.67,473.33 ZM 256.68 473.35 C256.31,472.97 256.00,456.99 256.00,437.83 L 256.00 403.00 L 264.75 403.00 L 273.50 403.00 L 273.18 420.75 C273.00,430.51 273.15,443.11 273.52,448.75 L 274.19 459.00 L 289.14 459.00 L 304.09 459.00 L 303.79 466.25 L 303.50 473.50 L 280.43 473.77 C267.75,473.92 257.06,473.73 256.68,473.35 ZM 453.67 473.33 C453.30,472.97 453.00,456.99 453.00,437.83 L 453.00 403.00 L 461.50 403.00 L 470.00 403.00 L 470.00 416.39 L 470.00 429.78 L 472.69 430.46 C474.17,430.83 479.79,430.82 485.19,430.44 L 495.00 429.74 L 495.00 416.33 L 495.00 402.92 L 503.75 403.21 L 512.50 403.50 L 512.50 438.50 L 512.50 473.50 L 504.00 473.50 L 495.50 473.50 L 495.22 459.75 L 494.94 446.00 L 482.47 446.00 L 470.00 446.00 L 470.00 460.00 L 470.00 474.00 L 462.17 474.00 C457.86,474.00 454.03,473.70 453.67,473.33 ZM 601.67 473.33 C601.30,472.97 601.00,456.99 601.00,437.83 L 601.00 403.00 L 609.48 403.00 L 617.97 403.00 L 618.23 430.75 L 618.50 458.50 L 633.25 458.78 L 648.00 459.05 L 648.00 466.53 L 648.00 474.00 L 625.17 474.00 C612.61,474.00 602.03,473.70 601.67,473.33 ZM 659.71 473.37 C659.32,472.98 659.00,456.99 659.00,437.83 L 659.00 403.00 L 677.82 403.00 C696.37,403.00 696.72,403.04 702.06,405.75 C709.76,409.65 713.11,414.79 713.74,423.66 C714.34,432.18 712.82,437.99 708.80,442.57 C703.54,448.56 698.96,450.28 686.78,450.80 L 676.06 451.25 L 675.78 462.38 L 675.50 473.50 L 667.96 473.79 C663.81,473.95 660.09,473.76 659.71,473.37 ZM 694.24 434.20 C696.04,432.40 696.50,430.82 696.50,426.38 C696.50,418.53 694.45,417.00 683.89,417.00 L 676.00 417.00 L 676.00 426.33 C676.00,431.47 676.34,436.01 676.75,436.43 C677.16,436.84 680.76,437.02 684.74,436.82 C690.63,436.53 692.40,436.04 694.24,434.20 ZM 377.00 303.50 L 377.00 237.00 L 397.62 237.00 L 418.25 237.00 L 417.57 263.75 L 416.90 290.50 L 443.20 263.69 L 469.50 236.87 L 494.29 237.00 L 519.07 237.13 L 516.44 240.31 C514.99,242.07 501.42,256.22 486.29,271.77 L 458.79 300.05 L 464.08 307.27 C466.98,311.25 477.23,325.52 486.84,339.00 C496.45,352.48 505.42,364.96 506.77,366.75 L 509.24 370.00 L 484.79 370.00 L 460.34 370.00 L 448.84 353.75 C442.51,344.81 435.89,335.36 434.12,332.75 C432.35,330.14 430.58,328.00 430.17,328.00 C429.77,328.00 426.64,330.82 423.22,334.28 L 417.00 340.55 L 417.00 355.28 L 417.00 370.00 L 397.00 370.00 L 377.00 370.00 L 377.00 303.50 ZM 519.46 368.75 C519.19,368.06 519.10,347.92 519.24,324.00 C519.50,280.69 519.51,280.50 521.60,280.20 C523.58,279.92 523.73,279.11 524.34,265.70 C524.70,257.89 524.99,246.66 525.00,240.75 L 525.00 230.00 L 533.15 230.00 L 541.29 230.00 L 540.67 237.40 C540.32,241.47 540.33,252.70 540.68,262.35 C541.28,279.17 541.40,279.91 543.41,280.20 C545.49,280.50 545.50,280.73 545.78,323.00 C545.93,346.38 545.81,366.51 545.51,367.75 C544.98,369.93 544.60,370.00 532.45,370.00 C523.36,370.00 519.81,369.66 519.46,368.75 ZM 560.00 294.53 L 560.00 219.07 L 570.25 218.78 L 580.50 218.50 L 580.78 206.25 L 581.06 194.00 L 590.53 194.00 L 600.00 194.00 L 600.00 229.50 L 600.00 265.00 L 625.50 265.00 L 651.00 265.00 L 651.00 230.50 L 651.00 196.00 L 671.00 196.00 L 691.00 196.00 L 691.00 283.02 L 691.00 370.04 L 671.25 369.77 L 651.50 369.50 L 651.24 337.25 L 650.97 305.00 L 625.49 305.00 L 600.00 305.00 L 600.00 337.50 L 600.00 370.00 L 580.00 370.00 L 560.00 370.00 L 560.00 294.53 ZM 332.50 337.95 C325.35,337.56 306.11,336.65 289.75,335.93 C273.39,335.21 260.00,334.33 260.00,333.96 C260.00,333.31 267.69,332.87 311.50,331.00 C324.15,330.47 337.56,329.82 341.30,329.57 L 348.11 329.11 L 347.80 333.73 C347.64,336.27 347.05,338.42 346.50,338.51 C345.95,338.60 339.65,338.35 332.50,337.95 ZM 324.50 315.93 C300.34,314.77 285.83,313.83 286.21,313.46 C286.39,313.27 297.11,312.65 310.02,312.07 C322.94,311.49 336.76,310.76 340.75,310.46 L 348.00 309.92 L 348.00 313.46 C348.00,316.91 347.91,317.00 344.25,316.85 C342.19,316.77 333.30,316.35 324.50,315.93 ZM 481.49 225.46 C482.72,218.03 488.60,207.56 494.65,202.04 C505.06,192.52 515.50,189.05 533.77,189.02 C543.64,189.00 544.09,189.09 545.13,191.39 C547.30,196.15 557.44,197.84 560.73,194.00 C562.13,192.36 563.68,192.00 569.26,192.00 L 576.07 192.00 L 575.78 202.75 L 575.50 213.50 L 569.44 213.79 C564.39,214.04 563.08,213.75 561.54,212.04 C560.09,210.44 558.46,210.00 554.00,210.00 C546.68,210.00 545.22,211.52 544.81,219.52 L 544.50 225.50 L 532.50 225.50 L 520.50 225.50 L 520.00 219.17 C519.40,211.62 517.81,210.00 511.01,210.00 C504.45,210.00 497.01,214.04 488.22,222.39 L 480.83 229.41 L 481.49 225.46 ZM 364.00 224.61 C364.00,224.26 377.68,214.45 393.50,203.46 C396.80,201.16 413.45,189.46 430.50,177.44 C447.55,165.43 465.77,152.62 471.00,148.99 C476.23,145.36 503.90,125.96 532.50,105.88 C606.92,53.64 624.08,41.75 624.48,42.15 C624.67,42.34 624.98,48.37 625.17,55.55 L 625.50 68.61 L 621.00 71.80 C610.60,79.17 597.15,88.54 575.50,103.48 C552.14,119.60 491.39,161.94 465.00,180.50 C432.35,203.45 413.16,216.86 407.30,220.82 L 401.11 225.00 L 382.55 225.00 C372.35,225.00 364.00,224.83 364.00,224.61 Z" fill="rgb(243,243,243)"/>
</g>
</svg>